<svg width="184" height="248" viewBox="0 0 184 248" fill="none" xmlns="http://www.w3.org/2000/svg">
<path opacity="0.1" d="M157.681 74.6424H44.3192C42.4492 74.6424 40.9192 73.1124 40.9192 71.2424V48.0884C40.9192 46.2184 42.4492 44.6884 44.3192 44.6884H157.684C159.554 44.6884 161.084 46.2184 161.084 48.0884V71.2424C161.081 73.1124 159.551 74.6424 157.681 74.6424ZM79.0445 86.191H43.1235C41.9109 86.191 40.9192 85.1994 40.9192 83.9867C40.9192 82.774 41.9109 81.7824 43.1235 81.7824H79.0445C80.2572 81.7824 81.2489 82.774 81.2489 83.9867C81.2489 85.1994 80.2572 86.191 79.0445 86.191ZM158.877 98.9212H43.1235C41.9109 98.9212 40.9192 97.9295 40.9192 96.7169C40.9192 95.5042 41.9109 94.5125 43.1235 94.5125H158.877C160.089 94.5125 161.081 95.5042 161.081 96.7169C161.081 97.9267 160.089 98.9212 158.877 98.9212ZM158.877 109.062H43.1235C41.9109 109.062 40.9192 108.07 40.9192 106.857C40.9192 105.645 41.9109 104.653 43.1235 104.653H158.877C160.089 104.653 161.081 105.645 161.081 106.857C161.081 108.07 160.089 109.062 158.877 109.062ZM158.877 119.202H43.1235C41.9109 119.202 40.9192 118.211 40.9192 116.998C40.9192 115.785 41.9109 114.794 43.1235 114.794H158.877C160.089 114.794 161.081 115.785 161.081 116.998C161.081 118.211 160.089 119.202 158.877 119.202ZM158.877 129.346H43.1235C41.9109 129.346 40.9192 128.354 40.9192 127.141C40.9192 125.929 41.9109 124.937 43.1235 124.937H158.877C160.089 124.937 161.081 125.929 161.081 127.141C161.081 128.354 160.089 129.346 158.877 129.346ZM158.877 139.486H43.1235C41.9109 139.486 40.9192 138.494 40.9192 137.282C40.9192 136.069 41.9109 135.077 43.1235 135.077H158.877C160.089 135.077 161.081 136.069 161.081 137.282C161.081 138.494 160.089 139.486 158.877 139.486ZM158.877 149.629H43.1235C41.9109 149.629 40.9192 148.638 40.9192 147.425C40.9192 146.212 41.9109 145.221 43.1235 145.221H158.877C160.089 145.221 161.081 146.212 161.081 147.425C161.081 148.638 160.089 149.629 158.877 149.629ZM158.877 159.77H43.1235C41.9109 159.77 40.9192 158.778 40.9192 157.566C40.9192 156.353 41.9109 155.361 43.1235 155.361H158.877C160.089 155.361 161.081 156.353 161.081 157.566C161.081 158.778 160.089 159.77 158.877 159.77ZM158.877 169.913H43.1235C41.9109 169.913 40.9192 168.922 40.9192 167.709C40.9192 166.496 41.9109 165.505 43.1235 165.505H158.877C160.089 165.505 161.081 166.496 161.081 167.709C161.081 168.919 160.089 169.913 158.877 169.913ZM158.877 180.054H43.1235C41.9109 180.054 40.9192 179.062 40.9192 177.849C40.9192 176.637 41.9109 175.645 43.1235 175.645H158.877C160.089 175.645 161.081 176.637 161.081 177.849C161.081 179.062 160.089 180.054 158.877 180.054ZM108.613 190.197H43.1235C41.9109 190.197 40.9192 189.205 40.9192 187.993C40.9192 186.78 41.9109 185.788 43.1235 185.788H108.613C109.826 185.788 110.818 186.78 110.818 187.993C110.818 189.203 109.826 190.197 108.613 190.197Z" fill="black"/>
<path d="M144.619 226.9C154.441 226.9 162.404 218.937 162.404 209.115C162.404 199.293 154.441 191.33 144.619 191.33C134.797 191.33 126.834 199.293 126.834 209.115C126.834 218.937 134.797 226.9 144.619 226.9Z" fill="#FFBE55"/>
<path d="M146.107 225.231C155.929 225.231 163.892 217.269 163.892 207.446C163.892 197.624 155.929 189.661 146.107 189.661C136.284 189.661 128.322 197.624 128.322 207.446C128.322 217.269 136.284 225.231 146.107 225.231Z" stroke="#FFBE55" stroke-miterlimit="10"/>
<path d="M78.8292 148.777L79.529 154.891C79.529 154.891 83.7733 154.948 85.4053 153.075C85.1078 151.947 84.3485 151.091 84.3485 151.091C84.3485 151.091 84.7508 151.171 86.1873 150.794C85.258 150.088 80.8692 147.604 80.8692 147.604L78.8292 148.777Z" fill="#FCD2B1"/>
<path d="M86.4055 152.247C86.4055 152.247 85.5385 149.961 84.6404 150.193C83.7422 150.425 80.294 153.378 81.5039 154.559C82.8469 155.871 82.623 157.098 82.623 157.098C82.623 157.098 86.8475 155.37 86.4055 152.247Z" fill="#FCD2B1"/>
<path d="M154.641 168.978H141.384C140.698 168.978 140.143 168.423 140.143 167.737V159.996C140.143 159.311 140.701 158.755 141.384 158.755H154.641C155.326 158.755 155.882 159.314 155.882 159.996V167.737C155.882 168.423 155.324 168.978 154.641 168.978ZM141.843 167.278H154.182V160.455H141.843V167.278Z" fill="#9ACFF7"/>
<path d="M161.616 165.13V180.371C161.616 181.065 161.05 181.632 160.356 181.632H135.666C134.972 181.632 134.405 181.065 134.405 180.371V165.13C134.405 164.436 134.972 163.87 135.666 163.87H160.356C161.05 163.87 161.616 164.436 161.616 165.13Z" fill="#CCE9FF"/>
<path d="M161.616 165.13V172.752H134.405V165.13C134.405 164.436 134.972 163.87 135.666 163.87H160.356C161.05 163.87 161.616 164.436 161.616 165.13Z" fill="#9ACFF7"/>
<path d="M144.619 171.608H151.402V175.11H144.619V171.608Z" fill="#2A94F4"/>
<path d="M116.668 150.93L113.563 241.237H120.029C120.029 241.237 129.662 199.048 125.103 191.971C129.339 178.946 136.037 151.4 136.037 151.4L116.668 150.93Z" fill="#0D517F"/>
<path d="M118.524 151.4L123.092 160.855L141.556 243.056H148.011C148.011 243.056 147.96 201.465 140.99 194.359C140.168 179.028 141.33 158.801 138.018 148.346C124.8 145.374 118.524 151.4 118.524 151.4Z" fill="#0E538C"/>
<path d="M123.584 108.778C118.229 118.091 109.659 133.496 99.9941 138.401C100.575 140.512 101.813 142.404 101.813 142.404C101.813 142.404 117.065 136.953 121.955 129.269C126.846 121.585 123.584 108.778 123.584 108.778Z" fill="#0B3A54"/>
<path d="M147.846 154.301C146.838 154.891 144.622 162.705 144.622 162.705C144.622 162.705 148.634 163.583 150.994 161.617C152.487 156.976 149.422 152.256 149.422 152.256L147.846 154.301ZM126.265 91.1748C126.123 92.7501 125.106 98.2185 125.106 98.2185L136.04 92.6595L135.519 91.257L132.68 85.3381C132.68 85.3381 129.926 85.4316 129.648 85.3381C129.367 85.2446 126.265 91.1748 126.265 91.1748Z" fill="#FCD2B1"/>
<path d="M137.95 68.1795C140.704 73.1747 144.149 69.9022 141.996 76.0137C142.67 77.0478 146.387 79.2862 138.811 86.9475C136.4 90.8235 135.516 91.2513 135.516 91.2513C135.516 91.2513 133.773 88.7325 132.677 86.6755L127.531 71.1035L137.95 68.1795Z" fill="#0E538C"/>
<path d="M121.927 73.8122C121.927 73.8122 116.311 78.5467 119.505 91.6537C124.021 92.3138 128.206 90.5515 128.206 90.5515L132.677 86.6812C132.677 86.6812 131.73 72.71 126.993 72.1603C122.259 71.6078 121.927 73.8122 121.927 73.8122Z" fill="#FFE3CA"/>
<path d="M127.704 74.6367C124.259 74.8095 115.371 71.1914 118.524 67.2332C121.678 63.275 124.865 68.4374 127.016 67.6639C129.169 66.8875 135.195 63.1872 137.949 68.1795C137.949 68.1795 139.499 74.206 127.704 74.6367Z" fill="#0E538C"/>
<path d="M134.054 81.8261C134.981 80.5343 135.048 78.9961 134.203 78.3904C133.359 77.7848 131.924 78.341 130.997 79.6328C130.07 80.9246 130.003 82.4628 130.847 83.0685C131.692 83.6741 133.127 83.1179 134.054 81.8261Z" fill="#FFE3CA"/>
<path d="M127.531 73.2399C127.041 77.283 127.282 79.5525 127.937 80.2184C128.37 81.2157 128.653 83.0432 128.653 83.0432H130.311C130.311 83.0432 132.643 78.3682 132.677 76.8722C132.708 75.3762 131.971 72.0697 131.971 72.0697L127.531 73.2399Z" fill="#0E538C"/>
<path d="M138.017 98.2185V91.257C138.017 91.257 123.616 96.4023 122.802 98.2185C121.989 100.035 115.322 118.933 115.322 118.933C115.322 118.933 115.297 161.249 115.345 162.705C117.983 159.308 125.599 152.432 125.599 152.432L143.5 162.705C143.5 162.705 137.686 140.636 137.425 139.132C137.165 137.627 140.987 122.435 140.987 122.435L138.017 98.2185Z" fill="#0B4870"/>
<path d="M137.252 99.0034C130.818 99.6579 128.325 102.021 128.325 104.647C132.526 113.969 149.067 129.643 146.838 154.891C148.937 155.061 151.827 154.891 151.827 154.891C151.827 154.891 161.276 123.03 137.252 99.0034Z" fill="#125D87"/>
<path d="M101.992 140.189C101.932 140.149 101.876 140.112 101.822 140.073C100.79 139.37 100.394 138.965 99.9942 138.398C99.5749 137.803 97.8352 136.707 96.9965 137.514C96.1578 138.319 96.0814 139.9 96.2797 140.495C96.4809 141.09 96.223 143.634 96.6423 144.119C97.0617 144.603 98.6087 145.504 99.8978 145.374C101.187 145.246 101.992 143.861 102.281 142.668C102.573 141.478 101.992 140.189 101.992 140.189Z" fill="#EDBC9A"/>
<path d="M113.563 241.395L98.9316 247.779H120.502L120.031 241.395H113.563ZM141.358 241.395L126.724 247.779H148.294L147.824 241.395H141.358Z" fill="#0B4870"/>
<path d="M176.129 37.027H140.494C136.519 37.027 133.269 40.2797 133.269 44.252V53.1005C133.269 57.0757 136.521 60.3255 140.494 60.3255H142.457L138.791 66.6013L147.608 60.3255H176.129C180.104 60.3255 183.354 57.0728 183.354 53.1005V44.252C183.354 40.2768 180.104 37.027 176.129 37.027ZM133.722 5.29651H116.487C108.131 5.29651 101.297 12.1333 101.297 20.486C101.297 28.7905 108.049 35.5877 116.334 35.6727C120.21 38.1632 125.106 41.2543 125.106 41.2543L122.154 35.6755H133.725C142.08 35.6755 148.914 28.8387 148.914 20.486C148.914 12.1333 142.078 5.29651 133.722 5.29651Z" fill="#FFBE55"/>
<path d="M71.131 76.1865C69.0967 73.0556 66.6572 69.6415 62.9795 69.0011C60.727 68.6073 58.4348 69.3638 56.3495 70.3016C52.6973 71.9421 49.1217 74.4015 47.6285 78.116C46.1722 81.7426 46.9655 85.8198 47.4812 89.693C47.9968 93.5661 48.0847 97.904 45.597 100.916C42.9223 104.149 38.2672 104.718 34.547 106.659C30.9572 108.535 28.1465 111.855 26.8998 115.711C26.2737 117.644 26.0442 119.808 26.8488 121.673C27.7272 123.701 29.6822 125.056 31.691 125.979C40.242 129.909 50.935 127.424 57.8767 121.069C64.8183 114.714 68.2183 105.095 68.3147 95.6855C68.3487 92.3365 68.003 88.9308 68.7992 85.6781C69.244 83.8591 70.0345 82.1393 70.4425 80.3118L71.131 76.1865Z" fill="#0E538C"/>
<path d="M58.8542 113.116C64.8467 127.512 71.9329 141.05 78.9114 150.009C81.6285 150.159 83.2067 148.623 83.2067 148.623C83.2067 148.623 68.309 122.452 69.4339 114.405C70.5615 106.356 58.8542 113.116 58.8542 113.116Z" fill="#1989DD"/>
<path d="M77.1747 134.919L90.8131 142.972L79.6918 161.807L66.0535 153.754L77.1747 134.919Z" fill="#CCE9FF"/>
<path d="M77.5167 136.113L89.6058 143.251L79.5505 160.281L67.4614 153.142L77.5167 136.113Z" fill="white"/>
<path d="M81.4103 136.534L87.3462 140.038C87.4242 140.084 87.4923 140.145 87.5468 140.217C87.6013 140.29 87.641 140.372 87.6636 140.46C87.6862 140.547 87.6914 140.639 87.6787 140.728C87.666 140.818 87.6358 140.904 87.5898 140.982L86.635 142.6C86.5891 142.678 86.5283 142.746 86.456 142.8C86.3837 142.855 86.3014 142.895 86.2138 142.917C86.1261 142.94 86.0349 142.945 85.9453 142.932C85.8557 142.92 85.7694 142.89 85.6915 142.843L79.7556 139.339C79.6776 139.293 79.6095 139.232 79.555 139.16C79.5005 139.087 79.4608 139.005 79.4382 138.917C79.4156 138.83 79.4104 138.739 79.4231 138.649C79.4358 138.559 79.466 138.473 79.512 138.395L80.4668 136.777C80.6623 136.449 81.0845 136.338 81.4103 136.534Z" fill="#0E538C"/>
<path d="M76.809 139.171L87.2612 145.342C87.4 145.425 87.4453 145.603 87.3632 145.742C87.281 145.881 87.1025 145.926 86.9637 145.844L76.5115 139.673C76.3727 139.591 76.3273 139.412 76.4095 139.273C76.4888 139.135 76.6702 139.089 76.809 139.171ZM75.8428 140.809L86.295 146.98C86.4338 147.062 86.4792 147.241 86.397 147.38C86.3148 147.518 86.1363 147.564 85.9975 147.482L75.5453 141.311C75.4065 141.228 75.3612 141.05 75.4433 140.911C75.5227 140.772 75.704 140.727 75.8428 140.809ZM74.8767 142.444L85.3288 148.615C85.4677 148.697 85.513 148.876 85.4308 149.014C85.3487 149.153 85.1702 149.199 85.0313 149.116L74.5792 142.945C74.4403 142.863 74.395 142.685 74.4772 142.546C74.5565 142.407 74.7378 142.362 74.8767 142.444ZM73.9105 144.082L84.3627 150.253C84.5015 150.335 84.5468 150.513 84.4647 150.652C84.3825 150.791 84.204 150.836 84.0652 150.754L73.613 144.583C73.4742 144.501 73.4288 144.322 73.511 144.184C73.5903 144.045 73.7717 143.999 73.9105 144.082ZM72.9443 145.716L83.3965 151.887C83.5353 151.97 83.5807 152.148 83.4985 152.287C83.4163 152.426 83.2378 152.471 83.099 152.389L72.6468 146.218C72.508 146.136 72.4627 145.957 72.5448 145.818C72.6242 145.682 72.8055 145.634 72.9443 145.716ZM71.9782 147.354L82.4303 153.525C82.5692 153.607 82.6145 153.786 82.5323 153.925C82.4502 154.063 82.2717 154.109 82.1328 154.027L71.6807 147.856C71.5418 147.773 71.4965 147.595 71.5787 147.456C71.658 147.317 71.8393 147.272 71.9782 147.354ZM70.9298 148.941L78.0018 153.117C78.0953 153.174 78.1067 153.33 78.0245 153.468C77.9423 153.607 77.8007 153.675 77.7043 153.619L70.6323 149.442C70.5388 149.386 70.5275 149.23 70.6097 149.091C70.6918 148.955 70.8363 148.887 70.9298 148.941Z" fill="#CCE9FF"/>
<path d="M78.7385 158.696C79.6836 158.696 80.4498 157.93 80.4498 156.985C80.4498 156.04 79.6836 155.273 78.7385 155.273C77.7933 155.273 77.0272 156.04 77.0272 156.985C77.0272 157.93 77.7933 158.696 78.7385 158.696Z" fill="#FFBE55"/>
<path d="M63.413 237.25L66.8781 242.243C67.646 243.348 68.6291 244.285 69.7681 244.997L74.2278 247.779H63.0758L59.452 243.523V247.779H57.7973V237.25H63.413Z" fill="#FFBE55"/>
<path d="M68.6433 184.581C68.1192 186.463 63.413 237.06 63.413 237.06C63.413 237.06 57.6585 238.706 57.8342 237.06C58.0098 235.414 51.9068 194.937 59.7523 184.581C65.1555 180.345 68.6433 184.581 68.6433 184.581Z" fill="#F7C39F"/>
<path d="M60.5344 237.25L63.9995 242.243C64.7674 243.348 65.7505 244.285 66.8895 244.997L71.3492 247.779H60.1972L56.5734 243.523V247.779H54.9187V237.25H60.5344Z" fill="#FFBE55"/>
<path d="M65.7647 184.581C65.2405 186.463 60.5343 237.06 60.5343 237.06C60.5343 237.06 54.7798 238.706 54.9555 237.06C55.1312 235.414 49.0282 194.937 56.8737 184.581C62.2768 180.345 65.7647 184.581 65.7647 184.581Z" fill="#FCD2B1"/>
<path d="M57.2562 138.73C53.2159 143.189 47.3764 147.708 51.8445 161.32C53.825 167.358 54.0602 173.829 52.6464 180.023C50.8415 187.936 49.2379 197.649 49.2379 197.649L69.5274 198.218C69.5274 198.218 75.9024 151.148 71.1339 138.73C65.215 136.528 57.2562 138.73 57.2562 138.73Z" fill="#0E538C"/>
<path d="M65.147 99.7117C67.527 103.171 75.6048 115.471 75.143 117.185C74.5933 119.23 71.1281 138.729 71.1281 138.729H57.2533C57.2533 138.729 59.0043 134.261 57.5423 131.283C56.0803 128.306 44.441 107.305 59.197 96.459C61.7413 97.428 65.147 99.7117 65.147 99.7117Z" fill="#2A94F4"/>
<path d="M65.8752 94.4587C65.5579 96.9237 65.1612 98.8305 66.2719 102.409C63.0135 100.978 59.435 98.0372 59.197 96.9237C60.3105 94.3 61.5034 92.6 60.5485 90.3503C62.138 90.5628 65.8752 94.4587 65.8752 94.4587Z" fill="#FCD2B1"/>
<path d="M71.25 78.4333C72.6667 83.25 72.3153 97.0172 68.5895 96.442C64.8637 95.8696 60.4238 94.0053 58.704 89.2793C56.987 84.5533 60.2992 70.1657 71.25 78.4333Z" fill="#FFE3CA"/>
<path d="M58.6434 90.2954C59.302 89.9152 59.3431 88.7534 58.7352 87.7004C58.1272 86.6474 57.1005 86.1021 56.4419 86.4823C55.7833 86.8626 55.7422 88.0244 56.3501 89.0774C56.9581 90.1304 57.9848 90.6757 58.6434 90.2954Z" fill="#FFE3CA"/>
<path d="M55.2842 88.5852C63.736 86.293 70.434 81.8305 72.0207 77.6768C73.6045 73.5232 62.8605 71.3727 60.7128 73.8093C58.5652 76.246 50.8727 83.5617 55.2842 88.5852Z" fill="#0E538C"/>
<path d="M58.6757 91.7699C59.4596 91.7699 60.0952 91.1343 60.0952 90.3504C60.0952 89.5664 59.4596 88.9308 58.6757 88.9308C57.8917 88.9308 57.2562 89.5664 57.2562 90.3504C57.2562 91.1343 57.8917 91.7699 58.6757 91.7699Z" fill="#FFBE55"/>
<path d="M60.0952 99.0515C56.9559 98.38 52.8532 104.996 53.2499 106.381C53.6465 107.767 63.8097 145.949 94.9962 143.373C95.0954 142.977 94.9962 140.206 94.9962 140.206C94.9962 140.206 68.9635 143.693 60.0952 99.0515Z" fill="#34A2F4"/>
<path d="M35.992 33.627H16.6687C7.66435 33.627 0.362854 40.9285 0.362854 49.9328C0.362854 58.9371 7.66435 66.2386 16.6687 66.2386H22.7632C27.543 69.8001 38.7658 78.1301 38.3267 77.5266C37.9442 76.9996 33.9322 70.3611 31.4502 66.2386H35.992C44.9963 66.2386 52.2978 58.9371 52.2978 49.9328C52.2978 40.9285 44.9963 33.627 35.992 33.627ZM78.5968 18.344C78.5968 8.66248 70.7485 0.814148 61.067 0.814148C51.3855 0.814148 43.5372 8.66248 43.5372 18.344C43.5372 28.0255 51.3855 35.8738 61.067 35.8738C62.1607 35.8738 63.2288 35.769 64.2659 35.5763L62.3562 44.6911L73.7689 30.4225L73.7603 30.4253C76.758 27.2803 78.5968 23.0275 78.5968 18.344Z" fill="#FFBE55"/>
<path d="M94.7525 140.767C95.0103 140.69 96.3703 140.591 96.529 140.37C96.6877 140.149 97.26 138.497 97.736 138.404C98.212 138.307 98.6257 141.064 97.736 142.509C96.8803 143.64 96.087 143.067 95.832 143.098C95.577 143.13 94.3077 143.067 94.3077 143.067L94.7525 140.767Z" fill="#FCD2B1"/>
</svg>
