<svg width="185" height="226" viewBox="0 0 185 226" fill="none" xmlns="http://www.w3.org/2000/svg">
<path d="M78 174.261C78 176.717 76.144 178.674 73.8343 178.674H71.0296V189L61.2545 178.674H29.1658C26.856 178.674 25 176.717 25 174.261V137.413C25 134.957 26.856 133 29.1658 133H73.793C76.1027 133 77.9588 134.999 77.9588 137.413V174.261H78Z" fill="#FFBE55"/>
<path d="M5 192.261C5 194.717 6.85605 196.674 9.16577 196.674H11.9704V207L21.7455 196.674H53.8343C56.144 196.674 58 194.717 58 192.261V155.413C58 152.957 56.144 151 53.8343 151H9.16577C6.85605 151 5 152.999 5 155.413V192.261V192.261Z" fill="#2A94F4"/>
<path d="M162.22 126.1L166.842 122.724L167.319 122.063L166.475 121.109L165.375 121.403L165.081 118.247L159.652 118.1L156.79 117.293L160.606 125.366L162.22 126.1Z" fill="#FFE3CA"/>
<path d="M171.758 93.3677L156.827 116.889C156.827 116.889 157.964 119.861 159.175 118.027C159.322 117.807 158.331 117.33 159.358 116.596C163.467 113.66 170.731 108.486 174.069 104.376C178.472 98.982 178.655 91.7531 178.655 91.7531L171.758 93.3677Z" fill="#FFE3CA"/>
<path d="M165.228 114.614L159.799 111.055L163.944 105.404L169.374 108.926L165.228 114.614Z" fill="white"/>
<path d="M155.286 66.1767L170.621 86.2488L160.863 108.78C160.863 108.78 167.319 114.798 168.713 113.293C180.123 101.037 184.085 85.4782 184.085 85.4782L164.458 53.4068C164.458 53.4068 162.22 48.3429 157.744 49.1869C148.72 50.8748 154.186 64.0117 155.286 66.1767V66.1767Z" fill="#0E538C"/>
<path d="M120.582 223.048C120.215 223.488 120.435 224.662 120.435 224.662C120.435 224.662 126.818 225.506 128.909 225.103C129.46 224.993 130.377 224.552 131.22 224.075C131.367 224.002 131.624 223.525 131.771 223.415C132.028 223.268 132.174 223.525 132.394 223.378C132.981 223.048 133.385 222.754 133.385 222.718C134.009 219.819 133.312 218.608 133.312 218.608C133.312 218.608 127.919 216.663 126.855 217.911C124.36 220.846 121.389 222.094 120.582 223.048V223.048ZM153.966 219.452L154.589 224.222L159.468 224.479C159.468 224.479 159.762 223.819 160.202 223.855C160.532 223.892 160.936 224.552 161.413 224.589C162.44 224.663 163.577 224.699 164.017 224.736C164.935 224.773 173.776 225.286 173.776 225.286C173.776 225.286 174.069 224.296 173.813 223.929C173.703 223.745 172.895 223.378 172.345 223.195C169.887 222.351 162.807 219.745 161.706 217.323C160.386 214.388 153.966 219.452 153.966 219.452V219.452Z" fill="#0B4870"/>
<path d="M143.73 100.743L126.195 100.34C126.195 100.34 123.663 111.018 123.443 120.045C123.113 132.888 122.893 145.585 123.15 153.474C122.856 154.722 122.746 156.006 122.819 157.254C123.37 166.758 125.754 217.213 125.754 217.213C125.754 217.213 133.348 218.094 133.458 217.177C135.256 202.058 137.42 177.656 137.457 168.372C137.494 165.473 137.604 162.574 137.751 159.859C138.961 155.199 143.73 100.743 143.73 100.743Z" fill="#0B4870"/>
<path d="M164.164 218.901L158.625 163.125C158.625 163.088 158.661 163.088 158.661 163.088L156.534 107.936L133.018 106.358C133.018 106.358 134.485 109.734 137.64 124.265C137.64 124.265 141.419 153.694 145.418 168.886C145.491 169.216 145.601 169.473 145.675 169.767C146.849 184.922 153.489 221.617 153.489 221.617L164.164 218.901V218.901Z" fill="#0B4870"/>
<path d="M93.2141 69.7728C93.2141 69.7728 86.097 64.1584 75.9351 52.5261C72.4866 48.5998 74.1742 52.8564 74.7611 57.7735C75.3481 62.6906 84.9231 72.4515 95.4152 75.2036C105.907 77.9558 93.2141 69.7728 93.2141 69.7728Z" fill="#FFE3CA"/>
<path d="M76.7422 55.6085C76.7422 55.6085 78.3563 50.3244 77.5126 49.0034C76.6688 47.6824 73.257 43.0955 73.257 43.0955L72.2665 41.9946C72.2665 41.9946 70.5056 42.435 72.8168 45.5174C75.128 48.5997 73.2203 47.7191 73.2203 47.7191L70.102 45.7742L66.0666 43.6826L64.4158 42.5084C64.4158 42.5084 63.5353 41.7745 63.1684 41.7745C62.1412 41.8112 62.5448 42.6185 62.5448 42.6185L68.6713 47.7191L61.8111 44.6C61.8111 44.6 60.8572 44.3431 60.5638 44.7835C60.2703 45.1871 60.5638 45.3339 60.5638 45.3339L67.534 50.7648L63.7921 49.5538C63.7921 49.5538 62.875 49.3336 62.5448 49.7373C62.2146 50.1776 62.1046 50.2877 62.1046 50.2877L75.825 56.9295L76.7422 55.6085V55.6085Z" fill="#FFE3CA"/>
<path d="M76.5221 62.6172L73.147 58.2138L78.8333 54.1774L82.2083 58.5808L76.5221 62.6172Z" fill="white"/>
<path d="M135.769 55.9388C135.769 55.9388 136.687 60.0853 120.912 76.8183C112.107 86.1755 107.228 90.689 102.862 88.5973C93.9478 84.3407 72.8902 64.4153 72.8902 64.4153L81.1445 55.0214C81.1445 55.0214 101.101 71.0571 104.183 72.7451C105.467 73.4423 113.428 62.0669 121.535 50.5446C123.003 48.4163 134.706 54.8012 135.769 55.9388V55.9388Z" fill="#0E538C"/>
<path d="M122.636 52.1959L134.265 45.9944L142.997 44.0496L147.912 46.6549C147.912 46.6549 158.148 52.5261 159.175 52.5261C160.202 52.5261 158.845 107.275 158.845 107.275L132.615 108.156L123.076 108.926L122.636 52.1959V52.1959Z" fill="white"/>
<path d="M130.45 124.669L130.23 57.4065L133.972 46.3246C129.166 46.9118 124.324 47.3888 120.875 51.6087L120.141 118.21L130.45 124.669ZM145.271 45.9944L149.233 53.26L148.463 98.8719L151.618 125.109L161.523 121.219L163.32 59.3514L160.239 49.1135L145.271 45.9944Z" fill="#0E538C"/>
<path d="M128.836 86.0654L124.837 59.5716L127.515 57.6268L124.617 55.2783L127.148 47.609L134.302 45.3339L131.11 57.4066L129.533 100.193L128.836 86.0654Z" fill="#0B4870"/>
<path d="M134.779 51.1317C134.779 51.1317 130.78 68.5618 134.302 100.56C134.522 102.615 137.274 103.752 137.274 103.752L139.952 100.45C139.952 100.45 137.127 72.9286 136.797 52.9298C136.723 50.4345 134.669 53.5169 134.779 51.1317Z" fill="#FFBE55"/>
<path d="M136.21 49.1502L139.218 53.1133L145.455 46.3247V45.1871L136.21 49.1502ZM134.449 44.8569L132.211 53.4068L135.183 49.8474L134.449 44.8569Z" fill="#F2F2F2"/>
<path d="M146.445 39.6462C146.152 41.0773 145.601 44.0863 145.014 45.3706C144.097 47.3521 135.99 49.1135 134.779 49.4071C133.532 49.7006 135.072 43.4258 135.072 41.9947C135.072 40.8938 135.806 41.2608 134.926 39.6829H146.445V39.6462Z" fill="#FCD2B1"/>
<path d="M132.651 36.4904C132.431 37.7013 133.312 38.8756 134.596 39.059L145.014 40.6736C146.298 40.8571 147.509 40.0498 147.692 38.8022L150.15 24.0508C150.37 22.8398 149.49 21.6656 148.206 21.4821L137.787 19.9042C136.503 19.7208 135.293 20.528 135.109 21.7757L132.651 36.4904V36.4904Z" fill="#FFE3CA"/>
<path d="M134.596 25.4819C134.596 25.4819 133.422 23.8306 133.312 22.9132C133.238 22.4362 133.972 20.8583 135.256 20.3813C136.54 19.9042 137.274 21.2619 137.274 21.2619C137.274 21.2619 135.256 21.9591 135.109 22.3261C134.962 22.693 134.596 25.4819 134.596 25.4819V25.4819Z" fill="#FFBE55"/>
<path d="M150.114 30.8394C150.114 30.8394 152.645 25.4085 152.645 23.7206C152.645 21.9959 152.645 20.8217 150.554 20.3079C147.436 19.5373 147.289 20.1978 145.895 19.0236C144.501 17.886 142.116 15.2073 141.199 14.8404C139.658 14.2165 137.09 14.3633 136.503 17.1888C136.063 19.2805 134.596 19.574 134.632 19.6841C134.706 19.941 135.256 20.3079 136.173 20.9317C138.851 22.7665 140.539 23.3169 142.85 23.0967C145.161 22.8766 149.49 22.3261 149.71 23.9774C149.93 25.6287 148.94 30.3991 149.05 30.766C149.16 31.1696 149.71 31.0596 150.114 30.8394V30.8394Z" fill="#FFBE55"/>
<path d="M146.115 34.7657C146.041 35.1694 146.335 35.573 146.775 35.6097L149.013 35.94C149.453 36.0134 149.857 35.7198 149.893 35.3162L150.554 31.3898C150.627 30.9861 150.334 30.5825 149.893 30.5458L147.656 30.2156C147.215 30.1422 146.812 30.4357 146.775 30.8394L146.115 34.7657ZM132.688 32.7108C132.615 33.1145 132.908 33.5181 133.348 33.5548L135.586 33.8851C136.026 33.9584 136.43 33.6649 136.467 33.2612L137.127 29.3349C137.2 28.9312 136.907 28.5276 136.467 28.4909L134.229 28.1606C133.788 28.0872 133.422 28.3808 133.348 28.7844L132.688 32.7108Z" fill="#FFE3CA"/>
<path d="M148.903 31.9769C148.903 31.9769 147.912 37.7747 147.619 39.7196C147.325 41.4809 145.931 45.1871 135.586 43.6092C129.46 42.6919 130.413 38.3986 130.633 37.0041C130.817 35.94 132.615 32.8943 133.385 32.3806C133.422 32.3806 132.981 34.7658 132.981 34.7658C132.981 34.7658 134.632 32.6374 137.567 33.0778C142.263 33.8117 142.887 36.6005 144.978 36.8574C146.592 37.0775 148.206 34.7658 148.903 31.9769Z" fill="#FFBE55"/>
<path d="M138.851 37.1876L135.623 36.7106C135.183 36.6372 134.889 36.2703 134.962 35.8666L135.036 35.4263L139.805 36.1602L139.732 36.6005C139.695 36.9675 139.291 37.261 138.851 37.1876V37.1876Z" fill="#FFE3CA"/>
<path d="M134.742 49.407L136.21 49.1501L137.2 52.4894L135.256 53.5535L133.752 53.0765L134.742 49.407Z" fill="#FFBE55"/>
<path d="M145.198 44.6367C144.868 45.6275 148.83 53.7004 148.83 53.7004L148.499 96.0831L155.616 60.0119L153.379 57.2231L155.837 54.8746L151.361 46.4715L145.198 44.6367V44.6367Z" fill="#0B4870"/>
<path d="M31.2152 1.26318L27.8034 18.4365L24.3917 35.6097C24.3917 35.6097 43.8718 29.5183 66.03 33.8851L67.5341 26.3259L69.0382 18.6933C46.9167 14.3266 31.2152 1.26318 31.2152 1.26318V1.26318Z" fill="#F2F2F2"/>
<path d="M62.9483 52.6729L61.004 51.7555L69.8453 32.9677L74.7978 35.3161L67.2773 51.2418C66.4702 53.0031 64.7093 53.5169 62.9483 52.6729Z" fill="#FFBE55"/>
<path d="M74.7978 32.9677V53.5169V32.9677ZM74.5777 32.9677H74.7978V53.5169H74.5777V32.9677ZM74.3576 32.9677H74.5777V53.5169H74.3576V32.9677Z" fill="#FFBE55"/>
<path d="M74.1375 32.9677H74.3576V53.5169H74.1375V32.9677Z" fill="#FFBE55"/>
<path d="M73.9541 32.9677H74.1742V53.5169H73.9541V32.9677ZM73.7339 32.9677H73.9541V53.5169H73.7339V32.9677Z" fill="#FFBE55"/>
<path d="M73.5138 32.9677H73.734V53.5169H73.5138V32.9677ZM73.2937 32.9677H73.5138V53.5169H73.2937V32.9677ZM73.0736 32.9677H73.2937V53.5169H73.0736V32.9677Z" fill="#FFBE55"/>
<path d="M72.8902 32.9677H73.1103V53.5169H72.8902V32.9677Z" fill="#FFBE55"/>
<path d="M72.6701 32.9677H72.8902V53.5169H72.6701V32.9677ZM72.45 32.9677H72.6701V53.5169H72.45V32.9677Z" fill="#FFBE55"/>
<path d="M72.2298 32.9677H72.4499V53.5169H72.2298V32.9677Z" fill="#FFBE55"/>
<path d="M72.0464 32.9677H72.2665V53.5169H72.0464V32.9677ZM71.8263 32.9677H72.0464V53.5169H71.8263V32.9677ZM71.6062 32.9677H71.8263V53.5169H71.6062V32.9677Z" fill="#FFBE55"/>
<path d="M71.3861 32.9677H71.6062V53.5169H71.3861V32.9677ZM71.166 32.9677H71.3861V53.5169H71.166V32.9677Z" fill="#FFBE55"/>
<path d="M70.9825 32.9677H71.2026V53.5169H70.9825V32.9677Z" fill="#FFBE55"/>
<path d="M70.7624 32.9677H70.9825V53.5169H70.7624V32.9677ZM70.5423 32.9677H70.7624V53.5169H70.5423V32.9677ZM70.3222 32.9677H70.5423V53.5169H70.3222V32.9677Z" fill="#FFBE55"/>
<path d="M70.1387 32.9677H70.3588V53.5169H70.1387V32.9677Z" fill="#FFBE55"/>
<path d="M69.9186 32.9677H70.1387V53.5169H69.9186V32.9677ZM69.6985 32.9677H69.9186V53.5169H69.6985V32.9677Z" fill="#FFBE55"/>
<path d="M69.4784 32.9677H69.6985V53.5169H69.4784V32.9677ZM69.2583 32.9677H69.4784V53.5169H69.2583V32.9677Z" fill="#FFBE55"/>
<path d="M69.0749 32.9677H69.295V53.5169H69.0749V32.9677ZM68.8547 32.9677H69.0749V53.5169H68.8547V32.9677Z" fill="#FFBE55"/>
<path d="M68.6346 32.9677H68.8547V53.5169H68.6346V32.9677ZM68.4145 32.9677H68.6346V53.5169H68.4145V32.9677Z" fill="#FFBE55"/>
<path d="M68.1944 32.9677H68.4145V53.5169H68.1944V32.9677Z" fill="#FFBE55"/>
<path d="M68.011 32.9677H68.2311V53.5169H68.011V32.9677ZM67.7909 32.9677H68.011V53.5169H67.7909V32.9677ZM67.5707 32.9677H67.7909V53.5169H67.5707V32.9677Z" fill="#FFBE55"/>
<path d="M67.3506 32.9677H67.5707V53.5169H67.3506V32.9677ZM67.1305 32.9677H67.3506V53.5169H67.1305V32.9677Z" fill="#FFBE55"/>
<path d="M66.9471 32.9677H67.1672V53.5169H66.9471V32.9677Z" fill="#FFBE55"/>
<path d="M66.727 32.9677H66.9471V53.5169H66.727V32.9677ZM66.5069 32.9677H66.727V53.5169H66.5069V32.9677ZM66.2867 32.9677H66.5069V53.5169H66.2867V32.9677Z" fill="#FFBE55"/>
<path d="M66.0666 32.9677H66.2867V53.5169H66.0666V32.9677Z" fill="#FFBE55"/>
<path d="M65.8832 32.9677H66.1033V53.5169H65.8832V32.9677ZM65.6631 32.9677H65.8832V53.5169H65.6631V32.9677Z" fill="#FFBE55"/>
<path d="M65.443 32.9677H65.6631V53.5169H65.443V32.9677ZM65.2228 32.9677H65.443V53.5169H65.2228V32.9677Z" fill="#FFBE55"/>
<path d="M65.0394 32.9677H65.2595V53.5169H65.0394V32.9677ZM64.8193 32.9677H65.0394V53.5169H64.8193V32.9677Z" fill="#FFBE55"/>
<path d="M64.5992 32.9677H64.8193V53.5169H64.5992V32.9677ZM64.3791 32.9677H64.5992V53.5169H64.3791V32.9677Z" fill="#FFBE55"/>
<path d="M64.159 32.9677H64.3791V53.5169H64.159V32.9677Z" fill="#FFBE55"/>
<path d="M63.9755 32.9677H64.1957V53.5169H63.9755V32.9677ZM63.7554 32.9677H63.9755V53.5169H63.7554V32.9677ZM63.5353 32.9677H63.7554V53.5169H63.5353V32.9677Z" fill="#FFBE55"/>
<path d="M63.3152 32.9677H63.5353V53.5169H63.3152V32.9677ZM63.0951 32.9677H63.3152V53.5169H63.0951V32.9677Z" fill="#FFBE55"/>
<path d="M62.9117 32.9677H63.1318V53.5169H62.9117V32.9677Z" fill="#FFBE55"/>
<path d="M62.6915 32.9677H62.9117V53.5169H62.6915V32.9677ZM62.4714 32.9677H62.6915V53.5169H62.4714V32.9677ZM62.2513 32.9677H62.4714V53.5169H62.2513V32.9677Z" fill="#FFBE55"/>
<path d="M62.0312 32.9677H62.2513V53.5169H62.0312V32.9677Z" fill="#FFBE55"/>
<path d="M61.8478 32.9677H62.0679V53.5169H61.8478V32.9677ZM61.6277 32.9677H61.8478V53.5169H61.6277V32.9677Z" fill="#FFBE55"/>
<path d="M61.4075 32.9677H61.6277V53.5169H61.4075V32.9677ZM61.1874 32.9677H61.4075V53.5169H61.1874V32.9677ZM60.9673 32.9677H61.1874V53.5169H60.9673V32.9677ZM60.9673 53.5169V32.9677V53.5169Z" fill="#FFBE55"/>
<path d="M81.3279 37.0775L61.8111 33.4447L64.9661 17.409L84.3361 21.8491L81.3279 37.0775Z" fill="#FFBE55"/>
<path d="M84.3361 17.409V37.0775V17.409ZM84.006 17.409H84.3361V37.0775H84.006V17.409ZM83.6391 17.409H83.9693V37.0775H83.6391V17.409Z" fill="#FFBE55"/>
<path d="M83.3089 17.409H83.6758V37.0775H83.3089V17.409ZM82.9421 17.409H83.2722V37.0775H82.9421V17.409ZM82.6119 17.409H82.9421V37.0775H82.6119V17.409ZM82.2817 17.409H82.6119V37.0775H82.2817V17.409ZM81.9149 17.409H82.245V37.0775H81.9149V17.409ZM81.5847 17.409H81.9149V37.0775H81.5847V17.409ZM81.2178 17.409H81.548V37.0775H81.2178V17.409ZM80.8877 17.409H81.2178V37.0775H80.8877V17.409ZM80.5208 17.409H80.8877V37.0775H80.5208V17.409ZM80.1906 17.409H80.5208V37.0775H80.1906V17.409ZM79.8238 17.409H80.154V37.0775H79.8238V17.409ZM79.4936 17.409H79.8238V37.0775H79.4936V17.409ZM79.1267 17.409H79.4569V37.0775H79.1267V17.409ZM78.7966 17.409H79.1267V37.0775H78.7966V17.409ZM78.4664 17.409H78.7966V37.0775H78.4664V17.409ZM78.0995 17.409H78.4297V37.0775H78.0995V17.409Z" fill="#FFBE55"/>
<path d="M77.7694 17.409H78.1362V37.0775H77.7694V17.409ZM77.4025 17.409H77.7327V37.0775H77.4025V17.409ZM77.0723 17.409H77.4025V37.0775H77.0723V17.409ZM76.7055 17.409H77.0357V37.0775H76.7055V17.409ZM76.3753 17.409H76.7055V37.0775H76.3753V17.409ZM76.0085 17.409H76.3386V37.0775H76.0085V17.409ZM75.6783 17.409H76.0085V37.0775H75.6783V17.409ZM75.3481 17.409H75.6783V37.0775H75.3481V17.409ZM74.9813 17.409H75.3114V37.0775H74.9813V17.409ZM74.6511 17.409H74.9813V37.0775H74.6511V17.409ZM74.2842 17.409H74.6144V37.0775H74.2842V17.409Z" fill="#FFBE55"/>
<path d="M73.9541 17.409H74.3209V37.0775H73.9541V17.409ZM73.5872 17.409H73.9174V37.0775H73.5872V17.409ZM73.257 17.409H73.5872V37.0775H73.257V17.409ZM72.8902 17.409H73.2203V37.0775H72.8902V17.409ZM72.56 17.409H72.8902V37.0775H72.56V17.409ZM72.1932 17.409H72.5233V37.0775H72.1932V17.409ZM71.863 17.409H72.1932V37.0775H71.863V17.409ZM71.5328 17.409H71.863V37.0775H71.5328V17.409ZM71.166 17.409H71.5328V37.0775H71.166V17.409ZM70.8358 17.409H71.166V37.0775H70.8358V17.409ZM70.4689 17.409H70.7991V37.0775H70.4689V17.409ZM70.1387 17.409H70.4689V37.0775H70.1387V17.409ZM69.7719 17.409H70.1021V37.0775H69.7719V17.409ZM69.4417 17.409H69.7719V37.0775H69.4417V17.409ZM69.0749 17.409H69.405V37.0775H69.0749V17.409ZM68.7447 17.409H69.0749V37.0775H68.7447V17.409ZM68.3778 17.409H68.708V37.0775H68.3778V17.409Z" fill="#FFBE55"/>
<path d="M68.0477 17.409H68.4145V37.0775H68.0477V17.409ZM67.7175 17.409H68.0477V37.0775H67.7175V17.409ZM67.3506 17.409H67.6808V37.0775H67.3506V17.409ZM67.0205 17.409H67.3506V37.0775H67.0205V17.409ZM66.6536 17.409H66.9838V37.0775H66.6536V17.409ZM66.3234 17.409H66.6536V37.0775H66.3234V17.409ZM65.9566 17.409H66.2867V37.0775H65.9566V17.409ZM65.6264 17.409H65.9566V37.0775H65.6264V17.409ZM65.2596 17.409H65.6264V37.0775H65.2596V17.409ZM64.9294 17.409H65.2596V37.0775H64.9294V17.409ZM64.5625 17.409H64.8927V37.0775H64.5625V17.409ZM64.2323 17.409H64.5625V37.0775H64.2323V17.409ZM63.9022 17.409H64.2323V37.0775H63.9022V17.409ZM63.5353 17.409H63.8655V37.0775H63.5353V17.409ZM63.2051 17.409H63.5353V37.0775H63.2051V17.409ZM62.8383 17.409H63.1685V37.0775H62.8383V17.409ZM62.5081 17.409H62.8383V37.0775H62.5081V17.409ZM62.1413 17.409H62.5081V37.0775H62.1413V17.409ZM61.8111 17.409H62.1413V37.0775H61.8111V17.409ZM61.8111 37.0775V17.409V37.0775Z" fill="#FFBE55"/>
<path d="M22.3739 12.1342C21.9337 12.5745 21.2367 12.5745 20.8331 12.1342L11.2215 2.52007C10.7813 2.07973 10.7813 1.38252 11.2215 0.978876C11.6617 0.538536 12.3587 0.538536 12.7623 0.978876L22.3739 10.593C22.8142 10.9966 22.8142 11.6938 22.3739 12.1342ZM17.8616 27.5461C17.935 28.1332 17.4947 28.6836 16.8711 28.757L3.37074 30.1881C2.78376 30.2615 2.23348 29.8212 2.16011 29.1973C2.08673 28.6102 2.52696 28.0598 3.15062 27.9864L16.651 26.5553C17.2379 26.5186 17.7882 26.9589 17.8616 27.5461V27.5461ZM15.6238 18.886C15.4403 19.4732 14.78 19.7667 14.2297 19.5466L1.38971 15.0698C0.802734 14.8863 0.509247 14.2258 0.729362 13.6753C0.91279 13.0882 1.57313 12.7947 2.12342 13.0148L14.9267 17.4916C15.5137 17.6751 15.8072 18.2989 15.6238 18.886Z" fill="#FFBE55"/>
</svg>
