<svg width="183" height="235" viewBox="0 0 183 235" fill="none" xmlns="http://www.w3.org/2000/svg">
<path opacity="0.11" d="M91.6522 235C141.728 235 182.323 228.752 182.323 221.046C182.323 213.339 141.728 207.091 91.6522 207.091C41.5761 207.091 0.981445 213.339 0.981445 221.046C0.981445 228.752 41.5761 235 91.6522 235Z" fill="#2A94F4"/>
<path d="M160.194 219.225H17.03C13.9786 219.225 11.505 216.748 11.505 213.692V16.0137C11.505 12.9577 13.9786 10.4804 17.03 10.4804H160.194C163.246 10.4804 165.719 12.9577 165.719 16.0137V213.692C165.719 216.748 163.246 219.225 160.194 219.225Z" fill="#0B4870"/>
<path d="M153.333 211.709H23.8911C20.8397 211.709 18.3661 209.232 18.3661 206.176V23.5299C18.3661 20.4738 20.8397 17.9965 23.8911 17.9965H153.333C156.384 17.9965 158.858 20.4738 158.858 23.5299V206.175C158.858 209.232 156.385 211.709 153.333 211.709V211.709Z" fill="#F7F7F7"/>
<path opacity="0.52" d="M34 44H143V47.1798H34V44ZM34 52.2848H143V55.4646H34V52.2848ZM81.6365 60.5693H143V63.7492H34V60.5693H81.6365ZM34 101.888H143V105.068H34V101.888ZM34 110.173H143V113.353H34V110.173ZM34 118.457H85.9416V121.637H34V118.457ZM34 161.251H143V164.431H34V161.251ZM34 169.536H138.583V172.715H34V169.536ZM34 177.82H143V181H34V177.82Z" fill="#2A94F4"/>
<path d="M122.641 20.658H54.5837V5.83607C54.5837 2.78005 57.0573 0.302734 60.1087 0.302734H117.116C120.167 0.302734 122.641 2.78005 122.641 5.83607V20.658Z" fill="#FFBE55"/>
<path d="M63.6467 188.93H129.917V229.307H63.6467V188.93ZM129.917 188.93H63.6467L69.0769 176.747H124.487L129.917 188.93Z" fill="#FFBE55"/>
<path opacity="0.11" d="M63.6467 188.93H129.917V229.307H63.6467V188.93Z" fill="#FFBE55"/>
<path d="M86.5011 120.803C86.5011 120.803 71.0265 138.316 69.9194 144.177C68.8124 150.038 83.9437 175.943 83.9437 175.943L76.9129 180.851L90.9434 179.507C90.9434 179.507 85.0388 158.002 81.6826 150.678C86.1965 147.613 97.0693 135.615 97.0693 135.615L107.154 159.149L111.502 186.04L123.157 189.475L116.353 182.082C117.559 162.317 117.537 162.313 118.419 156.271C119.263 150.495 114.26 129.547 112.783 122.871C111.306 116.195 90.8652 118.055 86.5011 120.803Z" fill="#0E538C"/>
<path d="M82.9907 68.3485C83.1986 69.1377 88.1071 89.8748 88.1071 89.8748C88.1071 89.8748 83.6456 92.062 81.7941 89.5582C79.9425 87.0544 79.3232 68.087 79.3232 68.087L82.9907 68.3485V68.3485Z" fill="#FCD2B1"/>
<path d="M82.1916 64.2413C82.1916 64.2413 79.4924 61.9079 78.6563 63.659C77.8202 65.4103 79.2933 67.2732 79.3232 68.087C79.3531 68.9009 82.9906 68.3485 82.9906 68.3485C82.9906 68.3485 83.9246 65.6994 82.1916 64.2413V64.2413Z" fill="#FCD2B1"/>
<path d="M83.8845 67.6831L55.3113 56.974C55.3113 56.974 52.7408 59.8465 53.6483 63.2797L82.6306 69.8932C82.6306 69.8932 84.1564 70.2694 83.8845 67.6831V67.6831Z" fill="#FFBE55"/>
<path d="M100.129 81.8263L97.6347 88.49C97.6347 88.49 97.9395 91.6489 101.391 91.7139C104.842 91.7789 105.416 89.7807 105.416 89.7807L104.847 81.8751C104.847 81.8754 101.603 80.9751 100.129 81.8263V81.8263ZM78.3363 86.9972L74.9092 86.3138L72.28 71.8476L75.5462 68.2899L73.1955 67.6121C73.1955 67.6121 73.6619 64.699 73.3148 63.1971C72.9674 61.6955 71.9814 61.3167 69.5274 62.2841C68.2336 63.036 67.2113 67.716 68.4401 70.3695C69.669 73.0232 69.5467 89.7219 69.2917 92.4058C69.0366 95.0897 76.4983 96.8276 76.4983 96.8276C76.4983 96.8276 80.0679 97.3198 81.2358 93.5777C82.4036 89.8355 78.3363 86.9972 78.3363 86.9972V86.9972Z" fill="#FCD2B1"/>
<path d="M100.588 87.3377C97.8506 86.7943 94.5998 86.5589 90.9227 87.0149C84.3491 87.2754 78.3363 86.9972 78.3363 86.9972C78.3363 86.9972 75.6947 91.6113 76.4985 96.8274C76.4985 96.8274 83.0498 100.84 89.3594 101.093C90.0799 104.056 88.9533 117.459 86.5011 120.803C88.3469 123.672 103.855 127.061 112.783 122.871C114.3 119.918 112.762 107.335 111.516 98.9789C110.653 93.1947 106.317 88.4753 100.588 87.3377V87.3377Z" fill="#FFBE55"/>
<path d="M99.0238 70.8949C99.0238 70.8949 94.0743 76.9553 94.6553 79.2832C95.2368 81.6111 98.0233 83.7772 104.628 84.5113C106.895 84.171 109.404 77.3904 109.347 75.9715C108.972 66.6852 101.459 69.3285 99.0238 70.8949V70.8949Z" fill="#FFE3CA"/>
<path d="M105.191 74.2532C105.191 74.2532 96.5467 72.8551 95.705 68.4822C94.8636 64.1092 101.919 61.8622 105.047 63.2294C106.38 63.8118 107.053 64.8334 107.836 65.982C108.718 67.274 109.81 67.7105 111.217 68.4575C111.67 68.698 112.125 68.9403 112.529 69.2566C114.709 70.9655 113.935 72.9948 113.567 75.2822C113.213 77.4798 112.872 79.7411 111.432 81.53C108.928 84.6404 104.732 84.1576 104.848 81.8749C104.963 79.5929 107.519 74.7938 105.191 74.2532V74.2532ZM83.9435 175.943C83.9435 175.943 88.1659 175.861 89.7733 175.4C90.4931 177.89 90.9434 179.507 90.9434 179.507L76.9129 180.851L83.9435 175.943V175.943ZM110.75 181.114C112.771 182.286 116.353 182.082 116.353 182.082L123.158 189.475L111.502 185.768L110.75 181.114Z" fill="#0B4870"/>
<path d="M55.3114 56.974L47.444 57.4798L53.6483 63.2797L55.3114 63.6592L53.6136 61.5759L56.2478 61.7147L54.3067 59.6318L57.2875 59.7012L54.9306 58.1046L57.5522 57.8139L55.3114 56.974Z" fill="#FFE3CA"/>
<path d="M51.3188 57.2306C51.3188 57.2306 51.4395 59.4815 50.2042 60.06L47.444 57.4796L51.3188 57.2306Z" fill="#FFBE55"/>
<path d="M82.729 67.2501C82.729 67.2501 80.0426 67.9904 77.1312 66.949C74.2198 65.9076 77.2866 62.6007 79.3233 62.831C81.3599 63.0611 84.0658 64.8897 82.729 67.2501V67.2501Z" fill="#FAB9AF"/>
</svg>
